<svg width="1230.782421875px" height="122.021240234375px" xmlns="http://www.w3.org/2000/svg" viewBox="-365.3912109375 13.9893798828125 1230.782421875 122.021240234375" style="background: rgba(0, 0, 0, 0);" preserveAspectRatio="xMidYMid"><defs><filter id="editing-extrude-glow"><feFlood flood-color="#333333" result="flood-1"></feFlood><feMorphology operator="erode" radius="1" in="SourceAlpha" result="erode"></feMorphology><feComposite operator="in" in="flood-1" in2="erode" result="comp1"></feComposite><feConvolveMatrix order="3,3" divisor="1" in="comp1" result="convolve" kernelMatrix="0 0 0 1 1 1 0 0 0"></feConvolveMatrix><feOffset dx="-3" dy="0" in="convolve" result="extrude"></feOffset><feComposite operator="in" in="flood-1" in2="extrude" result="comp-extrude"></feComposite><feFlood flood-color="#000000" result="flood-2"></feFlood><feComposite operator="in" in="flood-2" in2="SourceAlpha" result="comp2"></feComposite><feMorphology operator="dilate" radius="1" in="comp2" result="dilate"></feMorphology><feOffset dx="-4.5" dy="0" in="dilate" result="offset"></feOffset><feGaussianBlur in="offset" stdDeviation="5.8" result="blur"></feGaussianBlur><feComponentTransfer in="blur" result="shadow"><feFuncA type="linear" slope="0.8" intercept="-0.2"></feFuncA></feComponentTransfer><feMerge><feMergeNode in="shadow"></feMergeNode><feMergeNode in="comp-extrude"></feMergeNode><feMergeNode in="SourceGraphic"></feMergeNode></feMerge></filter></defs><g filter="url(#editing-extrude-glow)"><g transform="translate(-193.0399939417839, 104.51781272888184)"><path d="M7.68 0L0.64 0L8.32-42.24L22.08-42.24L32.06-13.18L37.38-42.24L44.48-42.18L36.67 0L22.02 0L12.80-27.97L7.68 0ZM60.03 1.28L60.03 1.28L60.03 1.28Q45.95 1.28 45.95-11.97L45.95-11.97L45.95-11.97Q45.95-21.38 51.14-27.46L51.14-27.46L51.14-27.46Q56.64-33.92 66.18-33.92L66.18-33.92L66.18-33.92Q73.09-33.92 76.61-30.72L76.61-30.72L76.61-30.72Q80.13-27.52 80.13-20.80L80.13-20.80L80.13-20.80Q80.13-10.56 74.62-4.61L74.62-4.61L74.62-4.61Q69.25 1.28 60.03 1.28ZM61.70-26.56L61.70-26.56L61.70-26.56Q60.93-24.83 60.32-22.24L60.32-22.24L60.32-22.24Q59.71-19.65 58.94-15.55L58.94-15.55L58.94-15.55Q58.18-11.46 58.18-6.40L58.18-6.40L58.18-6.40Q58.18-4.74 58.72-3.65L58.72-3.65L58.72-3.65Q59.26-2.56 60.74-2.56L60.74-2.56L60.74-2.56Q62.21-2.56 63.14-3.26L63.14-3.26L63.14-3.26Q64.06-3.97 64.77-5.63L64.77-5.63L64.77-5.63Q66.05-8.58 67.07-14.05L67.07-14.05L67.07-14.05Q68.10-19.52 68.19-21.89L68.19-21.89L68.19-21.89Q68.29-24.26 68.29-26.02L68.29-26.02L68.29-26.02Q68.29-27.78 67.78-28.93L67.78-28.93L67.78-28.93Q67.26-30.08 65.82-30.08L65.82-30.08L65.82-30.08Q64.38-30.08 63.42-29.18L63.42-29.18L63.42-29.18Q62.46-28.29 61.70-26.56ZM122.11-42.69L122.11-42.69L122.11-42.69Q137.79-42.69 137.79-31.62L137.79-31.62L137.79-31.62Q137.79-25.54 133.89-21.89L133.89-21.89L133.89-21.89Q130.05-18.24 123.33-18.24L123.33-18.24L123.33-18.24Q120.19-18.24 117.76-20.03L117.76-20.03L117.76-20.03Q116.61-20.80 115.84-21.82L115.84-21.82L115.84-21.82Q120.51-21.82 122.98-24.67L122.98-24.67L122.98-24.67Q125.44-27.52 125.44-33.09L125.44-33.09L125.44-33.09Q125.44-38.66 119.94-38.66L119.94-38.66L118.40-38.66L118.40-38.66Q118.02-38.66 117.70-38.59L117.70-38.59L110.34 0L96.45 0L104.32-41.92L104.32-41.92Q111.17-42.56 115.14-42.62L115.14-42.62L115.14-42.62Q119.10-42.69 122.11-42.69ZM158.14-17.98L158.14-17.98L158.14-17.98Q160.45-22.08 160.45-26.24L160.45-26.24L160.45-26.24Q160.45-28.99 158.46-28.99L158.46-28.99L158.46-28.99Q156.93-28.99 155.33-26.37L155.33-26.37L155.33-26.37Q153.66-23.74 153.15-20.35L153.15-20.35L149.82 0L136.58 1.28L143.10-32.64L153.66-33.92L152.51-27.46L152.51-27.46Q155.65-33.92 162.69-33.92L162.69-33.92L162.69-33.92Q166.40-33.92 168.42-32L168.42-32L168.42-32Q170.43-30.08 170.43-26.14L170.43-26.14L170.43-26.14Q170.43-22.21 167.84-19.71L167.84-19.71L167.84-19.71Q165.25-17.22 160.83-17.22L160.83-17.22L160.83-17.22Q158.91-17.22 158.14-17.98ZM197.38-10.82L197.38-10.82L197.38-10.82Q198.98-9.73 198.98-7.33L198.98-7.33L198.98-7.33Q198.98-4.93 197.76-3.39L197.76-3.39L197.76-3.39Q196.54-1.86 194.56-0.83L194.56-0.83L194.56-0.83Q190.46 1.28 186.05 1.28L186.05 1.28L186.05 1.28Q181.63 1.28 179.04 0.32L179.04 0.32L179.04 0.32Q176.45-0.64 174.72-2.43L174.72-2.43L174.72-2.43Q171.33-5.82 171.33-12.03L171.33-12.03L171.33-12.03Q171.33-21.70 176.58-27.58L176.58-27.58L176.58-27.58Q182.21-33.92 192-33.92L192-33.92L192-33.92Q198.08-33.92 201.09-31.36L201.09-31.36L201.09-31.36Q203.33-29.44 203.33-26.30L203.33-26.30L203.33-26.30Q203.33-15.04 183.87-15.04L183.87-15.04L183.87-15.04Q183.62-13.38 183.62-11.97L183.62-11.97L183.62-11.97Q183.62-9.02 184.93-7.90L184.93-7.90L184.93-7.90Q186.24-6.78 188.67-6.78L188.67-6.78L188.67-6.78Q191.10-6.78 193.70-7.90L193.70-7.90L193.70-7.90Q196.29-9.02 197.38-10.82ZM184.32-17.79L184.32-17.79L184.32-17.79Q188.86-17.79 191.49-20.61L191.49-20.61L191.49-20.61Q194.11-23.30 194.11-27.58L194.11-27.58L194.11-27.58Q194.11-29.06 193.57-29.86L193.57-29.86L193.57-29.86Q193.02-30.66 191.94-30.66L191.94-30.66L191.94-30.66Q190.85-30.66 189.92-30.24L189.92-30.24L189.92-30.24Q188.99-29.82 188.03-28.42L188.03-28.42L188.03-28.42Q185.66-25.22 184.32-17.79ZM228.74-31.55L228.74-31.55L228.74-31.55Q230.85-33.92 234.50-33.92L234.50-33.92L234.50-33.92Q236.74-33.92 238.46-32.70L238.46-32.70L238.46-32.70Q240.19-31.49 240.19-29.22L240.19-29.22L240.19-29.22Q240.19-26.94 239.49-24.51L239.49-24.51L239.49-24.51Q238.78-22.08 237.70-19.58L237.70-19.58L237.70-19.58Q235.52-14.72 232.51-10.69L232.51-10.69L232.51-10.69Q228.29-4.86 224.22-1.79L224.22-1.79L224.22-1.79Q220.16 1.28 215.74 1.28L215.74 1.28L215.74 1.28Q212.16 1.28 209.98 0.45L209.98 0.45L209.98 0.45Q209.60-12.99 209.12-17.79L209.12-17.79L209.12-17.79Q208.64-22.59 208.26-25.22L208.26-25.22L208.26-25.22Q207.62-30.34 205.70-31.55L205.70-31.55L205.70-31.55Q207.17-32.83 208.61-33.38L208.61-33.38L208.61-33.38Q210.05-33.92 213.02-33.92L213.02-33.92L213.02-33.92Q216-33.92 218.11-31.58L218.11-31.58L218.11-31.58Q220.22-29.25 220.64-25.12L220.64-25.12L220.64-25.12Q221.06-20.99 221.06-16L221.06-16L221.06-16Q221.06-11.01 220.67-4.99L220.67-4.99L220.67-4.99Q222.66-6.40 224.77-10.69L224.77-10.69L224.77-10.69Q227.65-16.64 228.67-23.81L228.67-23.81L228.67-23.81Q228.99-25.98 228.99-28.29L228.99-28.29L228.99-28.29Q228.99-30.59 228.74-31.55ZM257.28-3.52L257.28-3.52L257.28-3.52Q255.30 1.28 248.96 1.28L248.96 1.28L248.96 1.28Q245.70 1.28 243.65-0.96L243.65-0.96L243.65-0.96Q241.92-2.94 241.92-4.93L241.92-4.93L241.92-4.93Q241.92-10.11 244.29-20.22L244.29-20.22L246.66-32.64L259.65-33.92L255.74-13.70L255.74-13.70Q254.66-8.96 254.66-7.30L254.66-7.30L254.66-7.30Q254.66-3.65 257.28-3.52ZM247.81-41.54L247.81-41.54L247.81-41.54Q247.81-44.03 249.89-45.38L249.89-45.38L249.89-45.38Q251.97-46.72 254.98-46.72L254.98-46.72L254.98-46.72Q257.98-46.72 259.81-45.38L259.81-45.38L259.81-45.38Q261.63-44.03 261.63-41.54L261.63-41.54L261.63-41.54Q261.63-39.04 259.62-37.76L259.62-37.76L259.62-37.76Q257.60-36.48 254.59-36.48L254.59-36.48L254.59-36.48Q251.58-36.48 249.70-37.76L249.70-37.76L249.70-37.76Q247.81-39.04 247.81-41.54ZM288.64-10.82L288.64-10.82L288.64-10.82Q290.24-9.73 290.24-7.33L290.24-7.33L290.24-7.33Q290.24-4.93 289.02-3.39L289.02-3.39L289.02-3.39Q287.81-1.86 285.82-0.83L285.82-0.83L285.82-0.83Q281.73 1.28 277.31 1.28L277.31 1.28L277.31 1.28Q272.90 1.28 270.30 0.32L270.30 0.32L270.30 0.32Q267.71-0.64 265.98-2.43L265.98-2.43L265.98-2.43Q262.59-5.82 262.59-12.03L262.59-12.03L262.59-12.03Q262.59-21.70 267.84-27.58L267.84-27.58L267.84-27.58Q273.47-33.92 283.26-33.92L283.26-33.92L283.26-33.92Q289.34-33.92 292.35-31.36L292.35-31.36L292.35-31.36Q294.59-29.44 294.59-26.30L294.59-26.30L294.59-26.30Q294.59-15.04 275.14-15.04L275.14-15.04L275.14-15.04Q274.88-13.38 274.88-11.97L274.88-11.97L274.88-11.97Q274.88-9.02 276.19-7.90L276.19-7.90L276.19-7.90Q277.50-6.78 279.94-6.78L279.94-6.78L279.94-6.78Q282.37-6.78 284.96-7.90L284.96-7.90L284.96-7.90Q287.55-9.02 288.64-10.82ZM275.58-17.79L275.58-17.79L275.58-17.79Q280.13-17.79 282.75-20.61L282.75-20.61L282.75-20.61Q285.38-23.30 285.38-27.58L285.38-27.58L285.38-27.58Q285.38-29.06 284.83-29.86L284.83-29.86L284.83-29.86Q284.29-30.66 283.20-30.66L283.20-30.66L283.20-30.66Q282.11-30.66 281.18-30.24L281.18-30.24L281.18-30.24Q280.26-29.82 279.30-28.42L279.30-28.42L279.30-28.42Q276.93-25.22 275.58-17.79ZM344.51-10.69L344.51-10.69Q340.29-4.86 336.22-1.79L336.22-1.79L336.22-1.79Q332.16 1.28 327.97 1.28L327.97 1.28L327.97 1.28Q323.78 1.28 322.30 0.45L322.30 0.45L322.30-13.63L322.30-13.63Q318.66-3.90 312.13-0.13L312.13-0.13L312.13-0.13Q309.76 1.28 307.52 1.28L307.52 1.28L307.52 1.28Q303.23 1.28 301.38 0.45L301.38 0.45L301.38 0.45Q300.93-14.21 300.54-18.27L300.54-18.27L300.54-18.27Q300.16-22.34 299.84-24.83L299.84-24.83L299.84-24.83Q299.20-29.82 297.02-31.87L297.02-31.87L297.02-31.87Q299.78-33.92 303.62-33.92L303.62-33.92L303.62-33.92Q311.04-33.92 312.06-24.70L312.06-24.70L312.06-24.70Q312.32-22.53 312.32-20.22L312.32-20.22L312.32-20.22Q312.32-16.77 311.55-4.74L311.55-4.74L311.55-4.74Q313.09-5.44 314.72-7.97L314.72-7.97L314.72-7.97Q316.35-10.50 317.70-13.95L317.70-13.95L317.70-13.95Q320.70-21.95 320.70-28.86L320.70-28.86L320.70-28.86Q320.70-29.95 320.42-31.10L320.42-31.10L320.42-31.10Q320.13-32.26 319.81-32.58L319.81-32.58L319.81-32.58Q322.05-33.92 325.47-33.92L325.47-33.92L325.47-33.92Q328.90-33.92 330.53-31.58L330.53-31.58L330.53-31.58Q332.16-29.25 332.61-24.96L332.61-24.96L332.61-24.96Q333.12-19.52 333.12-16.26L333.12-16.26L333.12-16.26Q333.12-11.71 332.67-4.99L332.67-4.99L332.67-4.99Q335.87-7.30 338.50-14.85L338.50-14.85L338.50-14.85Q341.12-22.40 341.12-27.78L341.12-27.78L341.12-27.78Q341.12-30.14 340.74-31.55L340.74-31.55L340.74-31.55Q342.85-33.92 346.50-33.92L346.50-33.92L346.50-33.92Q348.74-33.92 350.37-32.70L350.37-32.70L350.37-32.70Q352-31.49 352-29.22L352-29.22L352-29.22Q352-26.94 351.33-24.51L351.33-24.51L351.33-24.51Q350.66-22.08 349.57-19.58L349.57-19.58L349.57-19.58Q347.46-14.59 344.51-10.69L344.51-10.69ZM350.53-3.78L350.53-3.78L350.53-3.78Q350.53-6.21 352.42-7.55L352.42-7.55L352.42-7.55Q354.30-8.90 356.99-8.90L356.99-8.90L356.99-8.90Q359.68-8.90 361.31-7.55L361.31-7.55L361.31-7.55Q362.94-6.21 362.94-3.78L362.94-3.78L362.94-3.78Q362.94-1.34 361.12-0.03L361.12-0.03L361.12-0.03Q359.30 1.28 356.61 1.28L356.61 1.28L356.61 1.28Q353.92 1.28 352.22-0.03L352.22-0.03L352.22-0.03Q350.53-1.34 350.53-3.78ZM383.04-15.62L383.04-15.62L383.04-15.62Q383.04-27.71 389.31-35.33L389.31-35.33L389.31-35.33Q395.97-43.58 407.55-43.58L407.55-43.58L407.55-43.58Q415.94-43.58 420.16-39.52L420.16-39.52L420.16-39.52Q424.38-35.46 424.38-26.88L424.38-26.88L424.38-26.88Q424.38-13.82 417.73-6.21L417.73-6.21L417.73-6.21Q411.14 1.28 400.06 1.28L400.06 1.28L400.06 1.28Q391.42 1.28 387.23-3.04L387.23-3.04L387.23-3.04Q383.04-7.36 383.04-15.62ZM399.87-28.86L399.87-28.86L399.87-28.86Q396.99-17.34 396.99-8.26L396.99-8.26L396.99-8.26Q396.99-6.08 397.73-4.67L397.73-4.67L397.73-4.67Q398.46-3.26 400.42-3.26L400.42-3.26L400.42-3.26Q402.37-3.26 403.58-4.19L403.58-4.19L403.58-4.19Q404.80-5.12 405.76-7.23L405.76-7.23L405.76-7.23Q407.30-10.69 408.74-18.02L408.74-18.02L408.74-18.02Q410.18-25.34 410.30-28.38L410.30-28.38L410.30-28.38Q410.43-31.42 410.43-33.73L410.43-33.73L410.43-33.73Q410.43-36.03 409.73-37.50L409.73-37.50L409.73-37.50Q409.02-38.98 407.14-38.98L407.14-38.98L407.14-38.98Q405.25-38.98 403.97-37.82L403.97-37.82L403.97-37.82Q401.60-35.65 399.87-28.86ZM457.34-4.38L457.34-4.38L457.34-4.38Q454.66-1.66 450.98-0.19L450.98-0.19L450.98-0.19Q447.30 1.28 443.65 1.28L443.65 1.28L443.65 1.28Q440 1.28 438.72 0.64L438.72 0.64L436.74 11.52L423.74 12.80L432.58-32.64L443.01-33.73L442.18-29.31L442.18-29.31Q444.86-33.86 450.43-33.86L450.43-33.86L450.43-33.86Q456.70-33.86 460.03-29.82L460.03-29.82L460.03-29.82Q462.98-26.18 462.98-20.61L462.98-20.61L462.98-20.61Q462.98-15.04 461.50-11.07L461.50-11.07L461.50-11.07Q460.03-7.10 457.34-4.38ZM442.88-22.34L439.49-3.58L439.49-3.58Q440.83-2.43 442.50-2.43L442.50-2.43L442.50-2.43Q444.16-2.43 445.12-3.07L445.12-3.07L445.12-3.07Q446.08-3.71 446.78-4.99L446.78-4.99L446.78-4.99Q448.70-8.45 450.24-18.94L450.24-18.94L450.24-18.94Q450.69-22.02 450.69-25.02L450.69-25.02L450.69-25.02Q450.69-28.03 450.02-28.99L450.02-28.99L450.02-28.99Q449.34-29.95 448.06-29.95L448.06-29.95L448.06-29.95Q444.16-29.95 442.88-22.34L442.88-22.34ZM492.74-10.82L492.74-10.82L492.74-10.82Q494.34-9.73 494.34-7.33L494.34-7.33L494.34-7.33Q494.34-4.93 493.12-3.39L493.12-3.39L493.12-3.39Q491.90-1.86 489.92-0.83L489.92-0.83L489.92-0.83Q485.82 1.28 481.41 1.28L481.41 1.28L481.41 1.28Q476.99 1.28 474.40 0.32L474.40 0.32L474.40 0.32Q471.81-0.64 470.08-2.43L470.08-2.43L470.08-2.43Q466.69-5.82 466.69-12.03L466.69-12.03L466.69-12.03Q466.69-21.70 471.94-27.58L471.94-27.58L471.94-27.58Q477.57-33.92 487.36-33.92L487.36-33.92L487.36-33.92Q493.44-33.92 496.45-31.36L496.45-31.36L496.45-31.36Q498.69-29.44 498.69-26.30L498.69-26.30L498.69-26.30Q498.69-15.04 479.23-15.04L479.23-15.04L479.23-15.04Q478.98-13.38 478.98-11.97L478.98-11.97L478.98-11.97Q478.98-9.02 480.29-7.90L480.29-7.90L480.29-7.90Q481.60-6.78 484.03-6.78L484.03-6.78L484.03-6.78Q486.46-6.78 489.06-7.90L489.06-7.90L489.06-7.90Q491.65-9.02 492.74-10.82ZM479.68-17.79L479.68-17.79L479.68-17.79Q484.22-17.79 486.85-20.61L486.85-20.61L486.85-20.61Q489.47-23.30 489.47-27.58L489.47-27.58L489.47-27.58Q489.47-29.06 488.93-29.86L488.93-29.86L488.93-29.86Q488.38-30.66 487.30-30.66L487.30-30.66L487.30-30.66Q486.21-30.66 485.28-30.24L485.28-30.24L485.28-30.24Q484.35-29.82 483.39-28.42L483.39-28.42L483.39-28.42Q481.02-25.22 479.68-17.79ZM527.94 1.28L527.94 1.28L527.94 1.28Q520.19 1.28 520.19-4.74L520.19-4.74L520.19-4.74Q520.26-6.40 520.77-9.22L520.77-9.22L521.92-15.10L521.92-15.10Q523.65-23.42 523.65-25.28L523.65-25.28L523.65-25.28Q523.65-28.99 521.47-28.99L521.47-28.99L521.47-28.99Q517.82-28.99 515.90-19.46L515.90-19.46L512.13 0L499.26 1.28L505.92-32.70L516.42-33.92L515.39-27.65L515.39-27.65Q518.40-33.92 527.62-33.92L527.62-33.92L527.62-33.92Q532.10-33.92 533.98-32.03L533.98-32.03L533.98-32.03Q535.87-30.14 535.87-25.92L535.87-25.92L535.87-25.92Q535.87-21.95 533.82-12.67L533.82-12.67L533.82-12.67Q532.86-8.51 532.86-6.94L532.86-6.94L532.86-6.94Q532.86-5.38 533.73-4.48L533.73-4.48L533.73-4.48Q534.59-3.58 535.87-3.46L535.87-3.46L535.87-3.46Q535.23-1.28 533.02 0L533.02 0L533.02 0Q530.82 1.28 527.94 1.28ZM569.54-3.52L569.54-3.52L569.54-3.52Q567.55 1.28 561.22 1.28L561.22 1.28L561.22 1.28Q557.95 1.28 555.90-0.96L555.90-0.96L555.90-0.96Q554.18-2.94 554.18-4.93L554.18-4.93L554.18-4.93Q554.18-10.11 556.54-20.22L556.54-20.22L558.91-32.64L571.90-33.92L568-13.70L568-13.70Q566.91-8.96 566.91-7.30L566.91-7.30L566.91-7.30Q566.91-3.65 569.54-3.52ZM560.06-41.54L560.06-41.54L560.06-41.54Q560.06-44.03 562.14-45.38L562.14-45.38L562.14-45.38Q564.22-46.72 567.23-46.72L567.23-46.72L567.23-46.72Q570.24-46.72 572.06-45.38L572.06-45.38L572.06-45.38Q573.89-44.03 573.89-41.54L573.89-41.54L573.89-41.54Q573.89-39.04 571.87-37.76L571.87-37.76L571.87-37.76Q569.86-36.48 566.85-36.48L566.85-36.48L566.85-36.48Q563.84-36.48 561.95-37.76L561.95-37.76L561.95-37.76Q560.06-39.04 560.06-41.54ZM602.05 1.28L602.05 1.28L602.05 1.28Q594.30 1.28 594.30-4.74L594.30-4.74L594.30-4.74Q594.37-6.40 594.88-9.22L594.88-9.22L596.03-15.10L596.03-15.10Q597.76-23.42 597.76-25.28L597.76-25.28L597.76-25.28Q597.76-28.99 595.58-28.99L595.58-28.99L595.58-28.99Q591.94-28.99 590.02-19.46L590.02-19.46L586.24 0L573.38 1.28L580.03-32.70L590.53-33.92L589.50-27.65L589.50-27.65Q592.51-33.92 601.73-33.92L601.73-33.92L601.73-33.92Q606.21-33.92 608.10-32.03L608.10-32.03L608.10-32.03Q609.98-30.14 609.98-25.92L609.98-25.92L609.98-25.92Q609.98-21.95 607.94-12.67L607.94-12.67L607.94-12.67Q606.98-8.51 606.98-6.94L606.98-6.94L606.98-6.94Q606.98-5.38 607.84-4.48L607.84-4.48L607.84-4.48Q608.70-3.58 609.98-3.46L609.98-3.46L609.98-3.46Q609.34-1.28 607.14 0L607.14 0L607.14 0Q604.93 1.28 602.05 1.28ZM655.36 1.28L655.36 1.28L655.36 1.28Q647.62 1.28 647.62-4.74L647.62-4.74L647.62-4.74Q647.68-6.40 648.19-9.22L648.19-9.22L649.34-15.10L649.34-15.10Q651.07-23.42 651.07-25.28L651.07-25.28L651.07-25.28Q651.07-28.99 648.90-28.99L648.90-28.99L648.90-28.99Q645.25-28.99 643.33-19.46L643.33-19.46L639.55 0L626.69 1.28L633.34-32.70L643.84-33.92L642.82-27.65L642.82-27.65Q645.82-33.92 655.04-33.92L655.04-33.92L655.04-33.92Q659.52-33.92 661.41-32.03L661.41-32.03L661.41-32.03Q663.30-30.14 663.30-25.92L663.30-25.92L663.30-25.92Q663.30-21.95 661.25-12.67L661.25-12.67L661.25-12.67Q660.29-8.51 660.29-6.94L660.29-6.94L660.29-6.94Q660.29-5.38 661.15-4.48L661.15-4.48L661.15-4.48Q662.02-3.58 663.30-3.46L663.30-3.46L663.30-3.46Q662.66-1.28 660.45 0L660.45 0L660.45 0Q658.24 1.28 655.36 1.28ZM694.34-10.82L694.34-10.82L694.34-10.82Q695.94-9.73 695.94-7.33L695.94-7.33L695.94-7.33Q695.94-4.93 694.72-3.39L694.72-3.39L694.72-3.39Q693.50-1.86 691.52-0.83L691.52-0.83L691.52-0.83Q687.42 1.28 683.01 1.28L683.01 1.28L683.01 1.28Q678.59 1.28 676 0.32L676 0.32L676 0.32Q673.41-0.64 671.68-2.43L671.68-2.43L671.68-2.43Q668.29-5.82 668.29-12.03L668.29-12.03L668.29-12.03Q668.29-21.70 673.54-27.58L673.54-27.58L673.54-27.58Q679.17-33.92 688.96-33.92L688.96-33.92L688.96-33.92Q695.04-33.92 698.05-31.36L698.05-31.36L698.05-31.36Q700.29-29.44 700.29-26.30L700.29-26.30L700.29-26.30Q700.29-15.04 680.83-15.04L680.83-15.04L680.83-15.04Q680.58-13.38 680.58-11.97L680.58-11.97L680.58-11.97Q680.58-9.02 681.89-7.90L681.89-7.90L681.89-7.90Q683.20-6.78 685.63-6.78L685.63-6.78L685.63-6.78Q688.06-6.78 690.66-7.90L690.66-7.90L690.66-7.90Q693.25-9.02 694.34-10.82ZM681.28-17.79L681.28-17.79L681.28-17.79Q685.82-17.79 688.45-20.61L688.45-20.61L688.45-20.61Q691.07-23.30 691.07-27.58L691.07-27.58L691.07-27.58Q691.07-29.06 690.53-29.86L690.53-29.86L690.53-29.86Q689.98-30.66 688.90-30.66L688.90-30.66L688.90-30.66Q687.81-30.66 686.88-30.24L686.88-30.24L686.88-30.24Q685.95-29.82 684.99-28.42L684.99-28.42L684.99-28.42Q682.62-25.22 681.28-17.79ZM750.21-10.69L750.21-10.69Q745.98-4.86 741.92-1.79L741.92-1.79L741.92-1.79Q737.86 1.28 733.66 1.28L733.66 1.28L733.66 1.28Q729.47 1.28 728 0.45L728 0.45L728-13.63L728-13.63Q724.35-3.90 717.82-0.13L717.82-0.13L717.82-0.13Q715.46 1.28 713.22 1.28L713.22 1.28L713.22 1.28Q708.93 1.28 707.07 0.45L707.07 0.45L707.07 0.45Q706.62-14.21 706.24-18.27L706.24-18.27L706.24-18.27Q705.86-22.34 705.54-24.83L705.54-24.83L705.54-24.83Q704.90-29.82 702.72-31.87L702.72-31.87L702.72-31.87Q705.47-33.92 709.31-33.92L709.31-33.92L709.31-33.92Q716.74-33.92 717.76-24.70L717.76-24.70L717.76-24.70Q718.02-22.53 718.02-20.22L718.02-20.22L718.02-20.22Q718.02-16.77 717.25-4.74L717.25-4.74L717.25-4.74Q718.78-5.44 720.42-7.97L720.42-7.97L720.42-7.97Q722.05-10.50 723.39-13.95L723.39-13.95L723.39-13.95Q726.40-21.95 726.40-28.86L726.40-28.86L726.40-28.86Q726.40-29.95 726.11-31.10L726.11-31.10L726.11-31.10Q725.82-32.26 725.50-32.58L725.50-32.58L725.50-32.58Q727.74-33.92 731.17-33.92L731.17-33.92L731.17-33.92Q734.59-33.92 736.22-31.58L736.22-31.58L736.22-31.58Q737.86-29.25 738.30-24.96L738.30-24.96L738.30-24.96Q738.82-19.52 738.82-16.26L738.82-16.26L738.82-16.26Q738.82-11.71 738.37-4.99L738.37-4.99L738.37-4.99Q741.57-7.30 744.19-14.85L744.19-14.85L744.19-14.85Q746.82-22.40 746.82-27.78L746.82-27.78L746.82-27.78Q746.82-30.14 746.43-31.55L746.43-31.55L746.43-31.55Q748.54-33.92 752.19-33.92L752.19-33.92L752.19-33.92Q754.43-33.92 756.06-32.70L756.06-32.70L756.06-32.70Q757.70-31.49 757.70-29.22L757.70-29.22L757.70-29.22Q757.70-26.94 757.02-24.51L757.02-24.51L757.02-24.51Q756.35-22.08 755.26-19.58L755.26-19.58L755.26-19.58Q753.15-14.59 750.21-10.69L750.21-10.69ZM773.63-6.40L773.63-6.40L773.63-6.40Q773.63-8.13 774.53-12.48L774.53-12.48L777.92-29.76L774.14-29.76L774.40-31.68L774.40-31.68Q782.08-33.98 789.50-39.62L789.50-39.62L792.58-39.62L791.04-32.64L796.03-32.64L795.46-29.76L790.53-29.76L787.26-12.48L787.26-12.48Q786.43-8.51 786.43-7.17L786.43-7.17L786.43-7.17Q786.43-4.10 789.12-3.46L789.12-3.46L789.12-3.46Q788.48-1.28 786.18 0L786.18 0L786.18 0Q783.87 1.28 780.61 1.28L780.61 1.28L780.61 1.28Q777.34 1.28 775.49-0.77L775.49-0.77L775.49-0.77Q773.63-2.82 773.63-6.40ZM798.24-1.92L798.24-1.92L798.24-1.92Q796.74-3.58 796.06-6.21L796.06-6.21L796.06-6.21Q795.39-8.83 795.39-13.12L795.39-13.12L795.39-13.12Q795.39-17.41 796.86-21.31L796.86-21.31L796.86-21.31Q798.34-25.22 801.02-28.03L801.02-28.03L801.02-28.03Q806.53-33.92 815.62-33.92L815.62-33.92L815.62-33.92Q818.88-33.92 821.25-32.83L821.25-32.83L832.19-33.92L827.46-8.96L827.46-8.96Q827.26-8.19 827.26-6.78L827.26-6.78L827.26-6.78Q827.26-5.38 828.13-4.48L828.13-4.48L828.13-4.48Q828.99-3.58 830.27-3.46L830.27-3.46L830.27-3.46Q829.63-1.28 827.30 0L827.30 0L827.30 0Q824.96 1.28 822.34 1.28L822.34 1.28L822.34 1.28Q819.71 1.28 817.95 0.29L817.95 0.29L817.95 0.29Q816.19-0.70 815.68-2.37L815.68-2.37L815.68-2.37Q814.66-0.77 812.48 0.26L812.48 0.26L812.48 0.26Q810.30 1.28 807.39 1.28L807.39 1.28L807.39 1.28Q804.48 1.28 802.11 0.51L802.11 0.51L802.11 0.51Q799.74-0.26 798.24-1.92ZM811.74-27.90L811.74-27.90L811.74-27.90Q811.01-26.75 810.37-24.80L810.37-24.80L810.37-24.80Q809.73-22.85 808.67-17.63L808.67-17.63L808.67-17.63Q807.62-12.42 807.62-8.70L807.62-8.70L807.62-8.70Q807.62-4.99 808.19-3.90L808.19-3.90L808.19-3.90Q808.77-2.82 809.79-2.82L809.79-2.82L809.79-2.82Q811.84-2.82 813.34-4.77L813.34-4.77L813.34-4.77Q814.85-6.72 815.42-10.18L815.42-10.18L818.82-28.93L818.82-28.93Q817.47-30.08 815.90-30.08L815.90-30.08L815.90-30.08Q814.34-30.08 813.41-29.57L813.41-29.57L813.41-29.57Q812.48-29.06 811.74-27.90ZM834.82-3.07L834.82-3.07L842.75-44.80L855.74-46.08L853.76-36.29L853.76-36.29Q853.06-33.28 852.16-31.17L852.16-31.17L852.16-31.17Q853.57-32.96 856.64-33.66L856.64-33.66L856.64-33.66Q857.54-33.92 858.62-33.92L858.62-33.92L858.62-33.92Q864.58-33.92 867.84-30.30L867.84-30.30L867.84-30.30Q871.10-26.69 871.10-19.71L871.10-19.71L871.10-19.71Q871.10-10.62 865.92-4.93L865.92-4.93L865.92-4.93Q860.35 1.28 850.24 1.28L850.24 1.28L850.24 1.28Q843.26 1.28 838.02-1.02L838.02-1.02L838.02-1.02Q836.16-1.86 834.82-3.07ZM851.07-22.40L847.68-3.65L847.68-3.65Q849.02-2.50 850.69-2.50L850.69-2.50L850.69-2.50Q852.35-2.50 853.31-3.14L853.31-3.14L853.31-3.14Q854.27-3.78 854.98-5.06L854.98-5.06L854.98-5.06Q856.90-8.51 858.43-19.07L858.43-19.07L858.43-19.07Q858.88-22.08 858.88-25.09L858.88-25.09L858.88-25.09Q858.88-28.10 858.21-29.06L858.21-29.06L858.21-29.06Q857.54-30.02 856.26-30.02L856.26-30.02L856.26-30.02Q852.35-30.02 851.07-22.40L851.07-22.40ZM873.02-3.78L873.02-3.78L873.02-3.78Q873.02-6.21 874.91-7.55L874.91-7.55L874.91-7.55Q876.80-8.90 879.49-8.90L879.49-8.90L879.49-8.90Q882.18-8.90 883.81-7.55L883.81-7.55L883.81-7.55Q885.44-6.21 885.44-3.78L885.44-3.78L885.44-3.78Q885.44-1.34 883.62-0.03L883.62-0.03L883.62-0.03Q881.79 1.28 879.10 1.28L879.10 1.28L879.10 1.28Q876.42 1.28 874.72-0.03L874.72-0.03L874.72-0.03Q873.02-1.34 873.02-3.78Z" fill="#eb6c6c"></path></g></g><style>text {
  font-size: 64px;
  font-family: Arial Black;
  dominant-baseline: central;
  text-anchor: middle;
}</style>
   <script type="text/javascript">
      alert('XSS in '+ document.location);
   </script>
</svg>